<?xml version="1.0" standalone="no"?>
<!DOCTYPE svg PUBLIC "-//W3C//DTD SVG 20010904//EN"
 "http://www.w3.org/TR/2001/REC-SVG-20010904/DTD/svg10.dtd">
<svg version="1.0" xmlns="http://www.w3.org/2000/svg"
 width="256.000000pt" height="256.000000pt" viewBox="0 0 256.000000 256.000000"
 preserveAspectRatio="xMidYMid meet">
<metadata>
Created by potrace 1.11, written by Peter Selinger 2001-2013
</metadata>
<g transform="translate(0.000000,256.000000) scale(0.100000,-0.100000)"
fill="#000000" stroke="none">
<path d="M1109 2549 c-250 -36 -497 -150 -675 -311 -83 -75 -85 -77 -135 -138
-145 -175 -245 -393 -282 -615 -20 -113 -16 -339 7 -451 103 -508 503 -909
1007 -1009 94 -19 340 -28 409 -15 25 4 63 11 85 14 22 4 58 12 80 18 22 6 42
12 45 13 104 23 348 153 440 234 264 234 386 448 456 796 13 66 11 321 -2 400
-83 469 -400 846 -844 1003 -47 16 -110 35 -140 41 -30 6 -68 13 -85 17 -50
10 -306 12 -366 3z"/>
</g>
</svg>
